<svg xmlns="http://www.w3.org/2000/svg" width="62.257" height="68.983" viewBox="0 0 62.257 68.983">
  <path id="Path_41" data-name="Path 41" d="M28.83,9.452a3.113,3.113,0,0,1-.857,4.318A24.942,24.942,0,0,0,17.9,41.533l2.1-1.994,2.141,2.029c4.732,4.484,7.2,8.183,7.2,11.6a8.11,8.11,0,0,1-.458,2.62c.6.368,1.225.711,1.864,1.028a58.742,58.742,0,0,1,7-11.264l1.595-2.082L41.8,40.324l3.179,4.08a62.624,62.624,0,0,1,7.867,12.409q.955-.474,1.869-1.029a7.969,7.969,0,0,1-.464-2.619c0-3.235,2.213-6.725,6.469-10.9l.728-.7,2.141-2.029,2.1,1.994A24.942,24.942,0,0,0,55.673,13.807a3.113,3.113,0,1,1,3.474-5.166A31.161,31.161,0,0,1,70.413,46.757a11.147,11.147,0,0,1,2.511,6.408c0,3.236-2.213,6.725-6.469,10.9l-.728.7-2.141,2.029-2.141-2.029a44.739,44.739,0,0,1-3.5-3.665,30.168,30.168,0,0,1-3.714,1.935c-.254,4.419-3.7,8.487-9.973,12.5l-.834.522-1.63,1-1.63-1c-6.494-3.99-10.2-8.025-10.75-12.4l-.055-.619A31,31,0,0,1,25.637,61.1q-1.165,1.4-2.7,2.9l-.789.761-2.141,2.029-2.141-2.029c-4.732-4.484-7.2-8.183-7.2-11.6a11.161,11.161,0,0,1,2.507-6.407A31.176,31.176,0,0,1,24.512,8.6,3.113,3.113,0,0,1,28.83,9.452Zm12.962,41.1C37.629,56.29,35.57,60.39,35.57,62.5c0,1.776,1.837,4.161,5.811,6.913h0l.414.278.414-.278c3.765-2.607,5.612-4.885,5.8-6.627h0l.015-.285c0-2.113-2.059-6.214-6.209-11.93h0Zm21.793-2.294-.524.583c-1.749,2-2.589,3.5-2.589,4.329,0,.894.985,2.582,3.045,4.84h0l.068.069.524-.58c1.6-1.835,2.443-3.25,2.572-4.109h0l.018-.22c0-.894-.985-2.582-3.045-4.84h0Zm-43.58,0-.524.583c-1.749,2-2.589,3.5-2.589,4.329,0,.894.985,2.582,3.045,4.84h0l.068.069.524-.58c1.6-1.835,2.443-3.25,2.571-4.109h0l.018-.22c0-.894-.985-2.582-3.045-4.84h0Z" transform="translate(-10.667 -8.07)" fill="#fff" fill-rule="evenodd"/>
</svg>
