<svg xmlns="http://www.w3.org/2000/svg" width="75.264" height="65" viewBox="0 0 75.264 65">
  <path id="Path_40" data-name="Path 40" d="M25.052,16A35.892,35.892,0,0,1,39.88,19.213h0l.437.208H45.6l.41-.192A35.826,35.826,0,0,1,59.6,16.023h0L60.878,16h16.3A3.421,3.421,0,0,1,80.6,19.421h0V74.158a3.421,3.421,0,0,1-3.421,3.421h-16.3a28.916,28.916,0,0,0-11.887,2.549h0l-1.134.54a3.429,3.429,0,0,1-1.47.332H39.544a3.415,3.415,0,0,1-1.53-.361,28.984,28.984,0,0,0-12.962-3.06H8.754a3.421,3.421,0,0,1-3.421-3.421h0V19.421A3.421,3.421,0,0,1,8.754,16h16.3Zm0,6.842H12.175V70.737H25.052A35.825,35.825,0,0,1,39.547,73.8h0l0-47.537a3.422,3.422,0,0,1-1.47-.332h0L37,25.419a28.984,28.984,0,0,0-11.947-2.577Zm48.7,0H63.491V39.947H56.649v-16.8a28.983,28.983,0,0,0-7.625,2.225h0l-1.108.525a3.421,3.421,0,0,1-1.53.361h0V73.8a35.829,35.829,0,0,1,13.1-3.035h0l1.388-.027H73.755Z" transform="translate(-5.333 -16)" fill="#fff" fill-rule="evenodd"/>
</svg>
