<svg xmlns="http://www.w3.org/2000/svg" width="51.2" height="17.922" viewBox="0 0 51.2 17.922">
  <path id="cash-on-delivery" d="M13.043,8.356a2.016,2.016,0,0,0-1.24.413,2.836,2.836,0,0,0-.885,1.217,4.451,4.451,0,0,0-.334,1.727,1.891,1.891,0,0,0,.358,1.265,1.435,1.435,0,0,0,1.141.413A4.94,4.94,0,0,0,13.848,13v1.327a5.867,5.867,0,0,1-2.089.393A2.733,2.733,0,0,1,9.7,13.955a2.986,2.986,0,0,1-.736-2.161A5.587,5.587,0,0,1,9.5,9.332a4.067,4.067,0,0,1,1.452-1.709,3.782,3.782,0,0,1,2.089-.584,5.238,5.238,0,0,1,1.159.115,4.494,4.494,0,0,1,1.086.421l-.616,1.276a4.441,4.441,0,0,0-.914-.4,2.729,2.729,0,0,0-.715-.1Zm6.481,4.486h-2.47l-.9,1.776H14.485l4-7.491h1.948l.767,7.491H19.648l-.125-1.776Zm-.078-1.327L19.31,9.729q-.052-.667-.052-1.291V8.254a14.033,14.033,0,0,1-.569,1.3l-.982,1.965h1.739Zm7.6.9a2.043,2.043,0,0,1-.773,1.686,3.256,3.256,0,0,1-2.094.62,3.352,3.352,0,0,1-1.859-.46v-1.4a3.941,3.941,0,0,0,1.869.551,1.648,1.648,0,0,0,.914-.217.676.676,0,0,0,.329-.6.991.991,0,0,0-.07-.385,1.072,1.072,0,0,0-.2-.309,5.368,5.368,0,0,0-.648-.52,3.443,3.443,0,0,1-1.013-1A2.059,2.059,0,0,1,23.21,9.32a2.124,2.124,0,0,1,1.246-1.982,3.135,3.135,0,0,1,1.376-.288,4.308,4.308,0,0,1,2.073.505l-.569,1.189a3.6,3.6,0,0,0-1.5-.378,1.076,1.076,0,0,0-.71.23.747.747,0,0,0-.276.607.89.89,0,0,0,.172.543,3.129,3.129,0,0,0,.773.615,3.062,3.062,0,0,1,.945.9,2.1,2.1,0,0,1,.313,1.151Zm6.92,2.2h-1.6l.7-3.22h-2.46l-.7,3.22H28.32l1.613-7.46h1.6L30.9,10.082h2.459l.632-2.924h1.592l-1.613,7.46Zm12.35-4.787a6.192,6.192,0,0,1-.517,2.585,3.9,3.9,0,0,1-1.415,1.722,3.715,3.715,0,0,1-2.067.582,2.811,2.811,0,0,1-2.086-.753,2.834,2.834,0,0,1-.749-2.09A5.927,5.927,0,0,1,40,9.389a4.059,4.059,0,0,1,1.425-1.743,3.687,3.687,0,0,1,2.1-.607,2.782,2.782,0,0,1,2.063.735,2.786,2.786,0,0,1,.73,2.056ZM43.4,8.356a1.707,1.707,0,0,0-1.159.467,3.124,3.124,0,0,0-.828,1.283,5.074,5.074,0,0,0-.3,1.771,1.635,1.635,0,0,0,.348,1.133,1.253,1.253,0,0,0,.979.383,1.729,1.729,0,0,0,1.151-.444,2.9,2.9,0,0,0,.812-1.255,5.345,5.345,0,0,0,.292-1.822,1.671,1.671,0,0,0-.339-1.12,1.194,1.194,0,0,0-.957-.4Zm10.032,6.262H51.641L49.782,8.974h-.031l-.021.163c-.111.735-.227,1.391-.344,1.97l-.757,3.511H47.193l1.613-7.46H50.67l1.775,5.5h.021q.063-.388.2-1.107t.94-4.388h1.43L53.426,14.62ZM13.3,20.185a5.745,5.745,0,0,1-.532,2.556,3.725,3.725,0,0,1-1.539,1.652,4.758,4.758,0,0,1-2.376.568H6.4l1.678-7.68h2.15a3.187,3.187,0,0,1,2.267.751,2.81,2.81,0,0,1,.8,2.154Zm-4.371,3.43a2.462,2.462,0,0,0,1.4-.4,2.615,2.615,0,0,0,.934-1.174,4.4,4.4,0,0,0,.337-1.773,1.742,1.742,0,0,0-.394-1.232,1.472,1.472,0,0,0-1.132-.423H9.447l-1.1,5h.575ZM18.64,24.96H14.2l1.678-7.68h4.442l-.293,1.334h-2.78L16.887,20.3h2.59l-.3,1.334h-2.59l-.435,1.98h2.78l-.293,1.345Zm1.869,0,1.678-7.68h1.661l-1.39,6.335h2.78l-.294,1.345H20.508Zm6.038,0,1.694-7.68H29.9L28.2,24.96Zm6.474-1.571a14.842,14.842,0,0,1,.6-1.487l2.346-4.623H37.68l-4.061,7.68H31.805l-.689-7.68h1.6L33,21.9q.022.235.022.7c-.007.361-.018.623-.033.788h.038Zm8.657,1.571H37.241l1.678-7.68h4.442l-.293,1.334h-2.78L39.924,20.3h2.59l-.3,1.334h-2.59l-.435,1.98h2.78l-.293,1.345Zm4.171-2.947L45.2,24.96H43.547l1.678-7.68h1.949a2.975,2.975,0,0,1,1.933.536,1.923,1.923,0,0,1,.646,1.571,2.291,2.291,0,0,1-.451,1.426A2.646,2.646,0,0,1,48,21.7l1.417,3.263h-1.8l-1.124-2.947h-.646Zm.288-1.324h.424a1.8,1.8,0,0,0,1.108-.3,1.07,1.07,0,0,0,.4-.914.794.794,0,0,0-.258-.646A1.252,1.252,0,0,0,47,18.613h-.4l-.456,2.076Zm7.575-.3,2.031-3.11H57.6l-3.355,4.744L53.6,24.96H51.954l.646-2.936L51.319,17.28h1.694l.7,3.11Z" transform="translate(-6.4 -7.039)" fill="#fff"/>
</svg>
