<svg xmlns="http://www.w3.org/2000/svg" width="60" height="65" viewBox="0 0 60 65">
  <path id="Path_39" data-name="Path 39" d="M64.667,5.333a5.955,5.955,0,0,1,6,5.909h0V64.424a5.955,5.955,0,0,1-6,5.909h-48a5.955,5.955,0,0,1-6-5.909h0V11.242a5.955,5.955,0,0,1,6-5.909h48Zm0,5.909h-48V64.424h48Zm-24,17.727a14.774,14.774,0,1,1-15,14.773A14.888,14.888,0,0,1,40.667,28.97Zm0,5.909a8.865,8.865,0,1,0,9,8.864A8.933,8.933,0,0,0,40.667,34.879Zm18-17.727v5.909h-6V17.151Zm-24,0v5.909h-12V17.151Z" transform="translate(-10.667 -5.333)" fill="#fff" fill-rule="evenodd"/>
</svg>
