<svg id="Google__G__Logo" xmlns="http://www.w3.org/2000/svg" width="20.554" height="21" viewBox="0 0 20.554 21">
  <path id="Path_2271" data-name="Path 2271" d="M-4.7,51.225a12.165,12.165,0,0,0-.166-1.986h-9.887v3.946h5.661a4.875,4.875,0,0,1-2.1,3.132v2.625h3.377A10.266,10.266,0,0,0-4.7,51.225Z" transform="translate(25.254 -40.489)" fill="#4285f4"/>
  <path id="Path_2272" data-name="Path 2272" d="M-16.093,62.025a10,10,0,0,0,6.939-2.546l-3.377-2.625a6.334,6.334,0,0,1-3.561,1.015,6.271,6.271,0,0,1-5.889-4.34h-3.482v2.7A10.484,10.484,0,0,0-16.093,62.025Z" transform="translate(26.593 -41.025)" fill="#34a853"/>
  <path id="Path_2273" data-name="Path 2273" d="M-22.143,52.57a6.093,6.093,0,0,1-.333-2,6.33,6.33,0,0,1,.333-2v-2.7h-3.482a10.378,10.378,0,0,0-1.129,4.707,10.378,10.378,0,0,0,1.129,4.707Z" transform="translate(26.754 -40.067)" fill="#fbbc05"/>
  <path id="Path_2274" data-name="Path 2274" d="M-16.093,43.4a5.7,5.7,0,0,1,4.025,1.575l2.992-2.993a10.039,10.039,0,0,0-7.017-2.739,10.484,10.484,0,0,0-9.371,5.793l3.482,2.7A6.271,6.271,0,0,1-16.093,43.4Z" transform="translate(26.593 -39.239)" fill="#ea4335"/>
</svg>
