<svg xmlns="http://www.w3.org/2000/svg" width="42.759" height="13.822" viewBox="0 0 42.759 13.822">
  <path id="Icon_payment-visa" data-name="Icon payment-visa" d="M9.774,20.433a1.391,1.391,0,0,0-1.566-1.128h-5.6l-.041.271c3.841.982,6.995,3.07,8.415,7.016L9.774,20.433Zm1.566,8.017-.355-1.858A8.382,8.382,0,0,0,6.474,22.04L9.293,32.689h3.654L18.4,19.305H14.722L11.34,28.451Zm9.751,4.258,2.17-13.4H19.8l-2.172,13.4Zm9.457-13.633c-3.424,0-5.824,1.817-5.846,4.426-.021,1.922,1.712,2.986,3.027,3.634,1.358.647,1.8,1.085,1.8,1.669,0,.9-1.085,1.3-2.067,1.3a6.569,6.569,0,0,1-3.257-.689l-.46-.23-.481,3.006a10.1,10.1,0,0,0,3.862.711c3.633.021,5.993-1.8,6.034-4.572,0-1.525-.939-2.672-2.923-3.634-1.21-.6-1.94-1.044-1.94-1.669,0-.563.626-1.149,1.983-1.149a5.759,5.759,0,0,1,2.589.5l.313.166.479-2.9a8.613,8.613,0,0,0-3.111-.564Zm9.313.23a1.714,1.714,0,0,0-1.817,1.128L32.907,32.709H36.54c.586-1.648.732-2,.732-2H41.7s.105.46.417,2H45.33l-2.8-13.4H39.86ZM38.252,27.95s.292-.773,1.379-3.738c-.021.021.292-.773.46-1.274l.25,1.149c.647,3.195.794,3.862.794,3.862H38.252Z" transform="translate(-2.571 -19.076)" fill="#fff"/>
</svg>
