<svg xmlns="http://www.w3.org/2000/svg" width="36.095" height="21.621" viewBox="0 0 36.095 21.621">
  <path id="Icon_payment-mastercard-alt" data-name="Icon payment-mastercard-alt" d="M41.215,27.16a10.809,10.809,0,0,0-1.43-5.45,12.415,12.415,0,0,0-3.931-3.931,11.477,11.477,0,0,0-5.45-1.43,10.311,10.311,0,0,0-6.522,2.233,10.864,10.864,0,0,1,3.395,5.629h-.983a10.291,10.291,0,0,0-3.127-5.093,10.28,10.28,0,0,0-3.127,5.093h-.983a10.856,10.856,0,0,1,3.395-5.629A10.318,10.318,0,0,0,15.93,16.35a11.47,11.47,0,0,0-5.45,1.43A12.4,12.4,0,0,0,6.55,21.71a11.1,11.1,0,0,0,0,10.9,12.384,12.384,0,0,0,3.931,3.931,11.457,11.457,0,0,0,5.45,1.43,10.311,10.311,0,0,0,6.522-2.233,11.26,11.26,0,0,1-3.306-5.182h.983A10.873,10.873,0,0,0,23.167,35.2,10.888,10.888,0,0,0,26.2,30.555h.983a11.287,11.287,0,0,1-3.306,5.182A10.3,10.3,0,0,0,30.4,37.97a11.46,11.46,0,0,0,5.45-1.43,12.4,12.4,0,0,0,3.931-3.931,10.81,10.81,0,0,0,1.43-5.45ZM9.855,24.569h1.7l-.893,5.182H9.588l.625-3.931-1.43,3.931h-.8V25.82l-.715,3.931H6.192l.893-5.182H8.694v3.216Zm5,2.144a4.237,4.237,0,0,1-.09.8c-.06.417-.121.8-.179,1.161a5.983,5.983,0,0,1-.179.8v.268h-.893V29.3a1.294,1.294,0,0,1-1.161.536.964.964,0,0,1-.715-.268,1.446,1.446,0,0,1-.268-.893,1.4,1.4,0,0,1,.447-1.161,2.543,2.543,0,0,1,1.519-.447h.447V26.8c0-.237-.239-.357-.715-.357a5.018,5.018,0,0,0-1.161.179c.058-.237.119-.536.179-.893a3.641,3.641,0,0,1,1.251-.268q1.519,0,1.519,1.251Zm-1.25,1.161H13.34c-.6,0-.893.21-.893.625,0,.3.119.447.357.447a.6.6,0,0,0,.536-.268A1.092,1.092,0,0,0,13.608,27.875Zm4.378-2.323-.179.983a2.751,2.751,0,0,0-.8-.089c-.358,0-.536.12-.536.357a.359.359,0,0,0,.09.268l.357.179a1.322,1.322,0,0,1,.8,1.161q0,1.43-1.7,1.43a5.278,5.278,0,0,1-1.161-.09c.058-.237.119-.566.179-.983a4.841,4.841,0,0,0,.983.179c.416,0,.625-.119.625-.357a.371.371,0,0,0-.09-.268,1.142,1.142,0,0,0-.447-.268,1.2,1.2,0,0,1-.8-1.161q0-1.428,1.608-1.43a4.162,4.162,0,0,1,1.073.09Zm1.7,0h.536l-.09,1.072H19.5a3.373,3.373,0,0,1-.09.8,2.792,2.792,0,0,1-.045.357.7.7,0,0,1-.134.357V28.5a.315.315,0,0,0,.357.357.79.79,0,0,0,.357-.09l-.179.983a2.706,2.706,0,0,1-.8.09.789.789,0,0,1-.893-.893,4.19,4.19,0,0,1,.179-1.161l.447-2.859h1.072l-.089.626Zm4.021,1.43a5.635,5.635,0,0,1-.09,1.072H21.381a.862.862,0,0,0,.179.625,1.092,1.092,0,0,0,.8.268,2.367,2.367,0,0,0,1.161-.357l-.179,1.072a3.156,3.156,0,0,1-1.161.179,1.658,1.658,0,0,1-1.876-1.876,2.669,2.669,0,0,1,.536-1.787,1.618,1.618,0,0,1,1.34-.715,1.575,1.575,0,0,1,1.161.447,1.465,1.465,0,0,1,.357,1.072Zm-2.234.179h1.251v-.268l-.09-.179a.265.265,0,0,0-.09-.179.252.252,0,0,1-.179-.089h-.179q-.536,0-.715.715Zm5-1.608a6.656,6.656,0,0,0-.447,1.251c-.239-.058-.447.089-.625.447a17.588,17.588,0,0,0-.447,2.5H23.793l.09-.268q.355-2.5.536-3.931h1.072l-.09.625a1.142,1.142,0,0,1,.536-.536.389.389,0,0,1,.536-.089Zm3.752-.8-.179,1.072a2.226,2.226,0,0,0-.983-.268,1.2,1.2,0,0,0-1.072.536,2.289,2.289,0,0,0-.357,1.43,1.232,1.232,0,0,0,.268.893.846.846,0,0,0,.715.357A2.228,2.228,0,0,0,29.6,28.5l-.179,1.161a2.219,2.219,0,0,1-.983.179,1.787,1.787,0,0,1-1.43-.625,2.185,2.185,0,0,1-.536-1.608,3.455,3.455,0,0,1,.715-2.233,2.051,2.051,0,0,1,1.787-.893,4.3,4.3,0,0,1,1.251.268Zm3.216,1.966a2.805,2.805,0,0,1-.045.357,2.657,2.657,0,0,0-.045.447c-.06.3-.121.7-.179,1.206A6.312,6.312,0,0,1,33,29.751H32.1V29.3a1.294,1.294,0,0,1-1.161.536.964.964,0,0,1-.715-.268,1.446,1.446,0,0,1-.268-.893,1.4,1.4,0,0,1,.447-1.161,2.4,2.4,0,0,1,1.43-.447h.447a.367.367,0,0,0,.09-.268c0-.237-.239-.357-.715-.357a5.018,5.018,0,0,0-1.161.179,2.9,2.9,0,0,1,.179-.893,3.641,3.641,0,0,1,1.251-.268q1.518,0,1.518,1.251Zm-1.251,1.161h-.268c-.6,0-.893.21-.893.625,0,.3.119.447.357.447a.6.6,0,0,0,.536-.268A1.092,1.092,0,0,0,32.191,27.875Zm4.02-2.323a2.38,2.38,0,0,0-.447,1.251c-.239-.058-.447.089-.625.447a18,18,0,0,0-.447,2.5H33.531l.09-.268q.354-1.953.536-3.931h1.072a2.01,2.01,0,0,1-.09.625,1.142,1.142,0,0,1,.536-.536.639.639,0,0,1,.536-.089Zm2.77-.983h1.161l-.893,5.182H38.177l.09-.357a1.19,1.19,0,0,1-.983.447,1.047,1.047,0,0,1-.983-.447,2.131,2.131,0,0,1-.447-1.251,2.748,2.748,0,0,1,.625-1.876,1.4,1.4,0,0,1,1.251-.715,1.543,1.543,0,0,1,1.072.536l.179-1.519Zm-.447,2.77c0-.536-.21-.8-.625-.8a.753.753,0,0,0-.625.447,1.889,1.889,0,0,0-.179.983q0,.8.536.8a.774.774,0,0,0,.625-.357,1.774,1.774,0,0,0,.268-1.072Z" transform="translate(-5.12 -16.35)" fill="#fff"/>
</svg>
