<svg xmlns="http://www.w3.org/2000/svg" width="22.79" height="26.921" viewBox="0 0 22.79 26.921">
  <path id="Icon_awesome-paypal" data-name="Icon awesome-paypal" d="M6.614,17.887c-.208,1.14-1.033,6.453-1.276,7.955-.018.107-.059.148-.178.148H.731a.721.721,0,0,1-.718-.825L3.491,3.087a1.206,1.206,0,0,1,1.187-1c9.041,0,9.8-.22,12.11.677,3.568,1.383,3.894,4.719,2.612,8.329-1.276,3.716-4.3,5.313-8.317,5.361-2.576.042-4.126-.416-4.47,1.437ZM21.2,9.344c-.107-.077-.148-.107-.178.077a13.894,13.894,0,0,1-.522,1.995c-2.369,6.756-8.934,6.168-12.14,6.168a.6.6,0,0,0-.647.558C6.371,26.476,6.1,28.216,6.1,28.216a.632.632,0,0,0,.629.766H10.5a1.065,1.065,0,0,0,1.033-.885c.042-.321-.065.362.855-5.42.273-1.306.849-1.169,1.739-1.169,4.215,0,7.5-1.71,8.483-6.667.386-2.066.273-4.239-1.413-5.5Z" transform="translate(-0.006 -2.06)" fill="#fff"/>
</svg>
