<svg xmlns="http://www.w3.org/2000/svg" width="285.881" height="124.196" viewBox="0 0 285.881 124.196">
  <g id="Layer_2" data-name="Layer 2" transform="translate(0.05 -0.063)">
    <g id="Layer_1" data-name="Layer 1" transform="translate(-0.05 0.063)">
      <text id="OMART" transform="translate(82.881 98.027)" fill="#fff" font-size="55" font-family="Poppins-Bold, Poppins" font-weight="700"><tspan x="0" y="0">OMART</tspan></text>
      <path id="Path_2262" data-name="Path 2262" d="M73.693,96.321l.192-17.97c.035-3.428-3.808-3.715-6.409-3.715H56.248c-5.273,0-10.646-.021-15.653-1.71C29.179,69.064,22.274,56.9,23.949,45.107A26.023,26.023,0,0,1,35.556,28.273a25.917,25.917,0,0,1,20.025-2.839A23.009,23.009,0,0,1,73.594,46.172a3.506,3.506,0,0,0,3.5,3.194H94.832a3.5,3.5,0,0,0,3.485-3.9c-.88-7.4-4.312-22.75-18.034-34.1-18.737-15.5-48.793-15.3-66.206,2.1C-8.088,35.622-3.751,77.9,24.133,93.361l.809.436c13.918,7.321,30,5.823,45.181,6.033a3.51,3.51,0,0,0,3.57-3.51Z" transform="translate(0.05 -0.063)" fill="#fff"/>
      <circle id="Ellipse_807" data-name="Ellipse 807" cx="9.833" cy="9.833" r="9.833" transform="translate(54.961 104.53)" fill="#fff"/>
      <circle id="Ellipse_808" data-name="Ellipse 808" cx="9.833" cy="9.833" r="9.833" transform="translate(26.82 104.53)" fill="#fff"/>
    </g>
  </g>
</svg>
