<svg xmlns="http://www.w3.org/2000/svg" width="25.8" height="25.796" viewBox="0 0 25.8 25.796">
  <path id="_046-shopping" data-name="046-shopping" d="M18.439,21.81H10.631a6.053,6.053,0,0,1-6.046-6.046v-6.2A9.167,9.167,0,0,0,.453,1.894,1.008,1.008,0,1,1,1.562.211,11.2,11.2,0,0,1,5.094,3.948,5.752,5.752,0,0,0,9.22,5.738h11.6a4.984,4.984,0,0,1,4.816,6.173L24.3,17.236A6.038,6.038,0,0,1,18.439,21.81ZM6.346,7.184A11.259,11.259,0,0,1,6.6,9.567v6.2a4.035,4.035,0,0,0,4.031,4.031h7.809a4.025,4.025,0,0,0,3.909-3.05l1.336-5.324a2.961,2.961,0,0,0-2.861-3.668H9.22a7.512,7.512,0,0,1-2.874-.569Zm3.781,17.4a1.26,1.26,0,1,0-1.26,1.26A1.26,1.26,0,0,0,10.127,24.581Zm10.026,0a1.26,1.26,0,1,0-1.26,1.26A1.26,1.26,0,0,0,20.153,24.581Zm1.678-13.8a1.008,1.008,0,0,0-1.008-1.008H9.623a1.008,1.008,0,0,0,0,2.015h11.2A1.008,1.008,0,0,0,21.831,10.776Z" transform="translate(0 -0.045)" fill="#f3736d"/>
</svg>
