<svg xmlns="http://www.w3.org/2000/svg" width="64.775" height="64.775" viewBox="0 0 64.775 64.775">
  <path id="Path_42" data-name="Path 42" d="M69.246,6.2a2.945,2.945,0,0,1,.245,3.887l-.245.277-2.082,2.081v7.342A76.9,76.9,0,0,1,65.3,36.6l-.435,1.835-1.011,4.043a10.4,10.4,0,0,0,.788,7.176,23.867,23.867,0,0,1,2.5,9.662l.021,1.009v3.9a5.889,5.889,0,0,1-5.449,5.872l-.439.017H11.222a5.889,5.889,0,0,1-5.872-5.449l-.016-.439V59.8a12.121,12.121,0,0,1,8.9-11.686l.588-.146,14.7-3.267a2.945,2.945,0,0,0,2.286-2.533l.02-.341V23.37L28.976,11.936a2.946,2.946,0,0,1,2.2-3.586L31.5,8.3l.332-.018H62.994L65.082,6.2A2.945,2.945,0,0,1,69.246,6.2Zm-7.971,7.971H35.6l2.029,8.119a2.954,2.954,0,0,1,.066.354h0l.022.36h8.833v5.889H37.721v5.889h8.833v5.889H37.721V41.83A8.833,8.833,0,0,1,30.8,50.452h0L16.1,53.72a6.232,6.232,0,0,0-4.88,6.083h0v4.416H61.275v-3.9a17.974,17.974,0,0,0-1.9-8.037h0l-.353-.753a16.292,16.292,0,0,1-.881-10.485h0l1.011-4.043a71.011,71.011,0,0,0,2.12-17.224h0Z" transform="translate(-5.333 -5.333)" fill="#fff" fill-rule="evenodd"/>
</svg>
