<svg xmlns="http://www.w3.org/2000/svg" width="51.977" height="13.908" viewBox="0 0 51.977 13.908">
  <g id="Group_9694" data-name="Group 9694" transform="translate(895.618 -502.202)">
    <path id="Path_2924" data-name="Path 2924" d="M-895.59,520.145a4.933,4.933,0,0,0,1.165,2.232,5.372,5.372,0,0,0,3.481,1.6,6.24,6.24,0,0,0,4.753-1.472.245.245,0,0,0,.088-.166c-.085.039-.173.073-.255.118a6.862,6.862,0,0,1-5.1.7,4.5,4.5,0,0,1-3.663-4.433,4.783,4.783,0,0,1,.455-2.331,13.565,13.565,0,0,0,.014,1.939,4.573,4.573,0,0,0,4.538,3.931,7.681,7.681,0,0,0,5.243-1.95,5.561,5.561,0,0,0,1.947-3.058,3.493,3.493,0,0,0-3.321-4.361,4.788,4.788,0,0,0-3.657,1.2,3.248,3.248,0,0,0-1.052,3.742,2.581,2.581,0,0,0,2.126,1.673,3.644,3.644,0,0,0,3.968-1.907,3.881,3.881,0,0,0,.245-1.677,1.765,1.765,0,0,0-1.959-1.544,2.334,2.334,0,0,0-2.457,2.155,1.128,1.128,0,0,0,1.2,1.221,2.209,2.209,0,0,0,2.1-1.255c.066-.1.12-.215.184-.32.011-.019.044-.024.068-.035a2.481,2.481,0,0,1-1.384,2.411,2.293,2.293,0,0,1-3.373-1.675,2.49,2.49,0,0,1,.571-1.877,4.036,4.036,0,0,1,4.768-1.121,2.747,2.747,0,0,1,1.446,2.78c-.243,3.32-4.211,5.15-7.119,3.354a4,4,0,0,1-1.65-3.828,5.17,5.17,0,0,1,4.366-4.183,5.845,5.845,0,0,1,3.739.462,4.418,4.418,0,0,1,2.506,4,7.283,7.283,0,0,1-1.827,5.022,8.856,8.856,0,0,1-5.94,3.441,5.756,5.756,0,0,1-5.118-1.59A3.828,3.828,0,0,1-895.59,520.145Z" transform="translate(0 -8.891)" fill="#fff"/>
    <path id="Path_2925" data-name="Path 2925" d="M-385.728,542.733q0,.242,0,.484,0,3,0,6c0,.52-.141.62-.658.489a1.637,1.637,0,0,1-1.323-1.7q-.011-3.2,0-6.408a1.527,1.527,0,0,1,.907-1.569,1.593,1.593,0,0,1,1.89.411c.706.781,1.328,1.638,1.975,2.471,1,1.289,1.989,2.585,2.984,3.877.04.052.089.1.209.23.017-.239.037-.388.038-.538q0-3,0-6c0-.607.065-.658.638-.519a1.646,1.646,0,0,1,1.345,1.682q.01,3.245,0,6.491a1.452,1.452,0,0,1-.786,1.429,1.547,1.547,0,0,1-1.78-.159,6.262,6.262,0,0,1-.914-.994c-1.42-1.83-2.827-3.669-4.24-5.5-.056-.072-.122-.136-.184-.2Z" transform="translate(-465.92 -34.56)" fill="#fff"/>
    <path id="Path_2926" data-name="Path 2926" d="M-576.853,544.811a2.456,2.456,0,0,1-1.089,3.824,4.46,4.46,0,0,1-5.982-3.344,5.2,5.2,0,0,1,2.3-5.629,5.759,5.759,0,0,1,6.249.4,5.047,5.047,0,0,1,1.86,3.916c.055,1.463.014,2.93.012,4.4,0,.471-.107.556-.567.482a1.719,1.719,0,0,1-1.495-1.827c-.016-.808.016-1.616-.011-2.423a4.292,4.292,0,0,0-.63-2.348,3.163,3.163,0,0,0-3.941-1.085,2.755,2.755,0,0,0-1.682,2.607,4.854,4.854,0,0,0,.162,1.5,2.459,2.459,0,0,0,4.1,1.014,5.614,5.614,0,0,0,.529-.966A4.963,4.963,0,0,0-576.853,544.811Z" transform="translate(-285.818 -33.687)" fill="#fff"/>
    <path id="Path_2927" data-name="Path 2927" d="M-703.77,548.827h.437c1.306,0,2.613-.007,3.919,0a7.182,7.182,0,0,1,1.105.1,1.451,1.451,0,0,1,1.151,1.15c.076.432-.016.55-.456.552-1.2,0-2.392,0-3.589,0q-1.712,0-3.424,0c-.952,0-1.56-.338-1.784-.98a1.775,1.775,0,0,1,.717-1.956c1.189-.972,2.391-1.928,3.586-2.893.742-.6,1.483-1.2,2.2-1.9h-.429c-1.182,0-2.365.008-3.547,0a7.81,7.81,0,0,1-1.147-.1,1.39,1.39,0,0,1-1.187-1.411c.007-.228.082-.372.332-.369,2.432.027,4.864.035,7.295.1a1.368,1.368,0,0,1,1.36,1.014,1.337,1.337,0,0,1-.368,1.434c-.7.65-1.433,1.275-2.173,1.885-1.332,1.1-2.681,2.174-4.023,3.26Z" transform="translate(-173.494 -35.611)" fill="#fff"/>
    <path id="Path_2928" data-name="Path 2928" d="M-434.635,544.3c0-1.3,0-2.6,0-3.9,0-.464.105-.548.572-.488a1.633,1.633,0,0,1,1.406,1.359,7.567,7.567,0,0,1,.084,1.061c.007,2.286,0,4.571,0,6.857,0,.568-.135.67-.7.544a1.593,1.593,0,0,1-1.367-1.7C-434.638,546.792-434.634,545.547-434.635,544.3Z" transform="translate(-422.879 -34.578)" fill="#fff"/>
    <path id="Path_2929" data-name="Path 2929" d="M-436.1,504.587a1.182,1.182,0,0,1-1.219-1.176,1.217,1.217,0,0,1,1.2-1.209,1.227,1.227,0,0,1,1.242,1.214A1.2,1.2,0,0,1-436.1,504.587Z" transform="translate(-420.417 0)" fill="#fff"/>
  </g>
</svg>
