<svg xmlns="http://www.w3.org/2000/svg" width="177.612" height="63.153" viewBox="0 0 177.612 63.153">
  <g id="Group_90" data-name="Group 90" transform="translate(83.234 -256.753)">
    <circle id="Ellipse_848" data-name="Ellipse 848" cx="1.987" cy="1.987" r="1.987" transform="translate(-2.246 256.754) rotate(45)" fill="#4ecdc4"/>
    <path id="Path_2391" data-name="Path 2391" d="M16.5,199.51a1.987,1.987,0,1,1-2.81,0A1.987,1.987,0,0,1,16.5,199.51Z" transform="translate(144.786 106.824) rotate(45)" fill="#4ecdc4"/>
    <path id="Path_2392" data-name="Path 2392" d="M25.267,190.739a1.987,1.987,0,1,1-2.81,0A1.988,1.988,0,0,1,25.267,190.739Z" transform="translate(148.019 106.823) rotate(45)" fill="#4ecdc4"/>
    <circle id="Ellipse_849" data-name="Ellipse 849" cx="1.987" cy="1.987" r="1.987" transform="translate(44.661 256.754) rotate(45)" fill="#4ecdc4"/>
    <circle id="Ellipse_850" data-name="Ellipse 850" cx="1.987" cy="1.987" r="1.987" transform="translate(60.296 256.754) rotate(45)" fill="#4ecdc4"/>
    <path id="Path_2393" data-name="Path 2393" d="M51.577,164.429a1.987,1.987,0,1,1-2.809,0A1.986,1.986,0,0,1,51.577,164.429Z" transform="translate(157.717 106.824) rotate(45)" fill="#4ecdc4"/>
    <circle id="Ellipse_851" data-name="Ellipse 851" cx="1.987" cy="1.987" r="1.987" transform="translate(91.568 256.754) rotate(45)" fill="#4ecdc4"/>
    <path id="Path_2399" data-name="Path 2399" d="M18.483,219.036a1.987,1.987,0,1,1-2.81,0A1.986,1.986,0,0,1,18.483,219.036Z" transform="translate(141.553 110.788) rotate(45)" fill="#4ecdc4"/>
    <path id="Path_2400" data-name="Path 2400" d="M27.253,210.266a1.987,1.987,0,1,1-2.809,0A1.986,1.986,0,0,1,27.253,210.266Z" transform="translate(144.786 110.789) rotate(45)" fill="#4ecdc4"/>
    <circle id="Ellipse_852" data-name="Ellipse 852" cx="1.987" cy="1.987" r="1.987" transform="translate(29.025 275.931) rotate(45)" fill="#4ecdc4"/>
    <path id="Path_2401" data-name="Path 2401" d="M44.794,192.726a1.987,1.987,0,1,1-2.81,0A1.988,1.988,0,0,1,44.794,192.726Z" transform="translate(151.251 110.788) rotate(45)" fill="#4ecdc4"/>
    <path id="Path_2402" data-name="Path 2402" d="M53.564,183.956a1.987,1.987,0,1,1-2.81,0A1.988,1.988,0,0,1,53.564,183.956Z" transform="translate(154.484 110.789) rotate(45)" fill="#4ecdc4"/>
    <circle id="Ellipse_853" data-name="Ellipse 853" cx="1.987" cy="1.987" r="1.987" transform="translate(75.932 275.931) rotate(45)" fill="#4ecdc4"/>
    <path id="Path_2403" data-name="Path 2403" d="M71.1,166.416a1.987,1.987,0,1,1-2.81,0A1.984,1.984,0,0,1,71.1,166.416Z" transform="translate(160.95 110.789) rotate(45)" fill="#4ecdc4"/>
    <path id="Path_2409" data-name="Path 2409" d="M29.24,229.793a1.987,1.987,0,1,1-2.81,0A1.986,1.986,0,0,1,29.24,229.793Z" transform="translate(141.553 114.754) rotate(45)" fill="#4ecdc4"/>
    <path id="Path_2410" data-name="Path 2410" d="M38.01,221.023a1.987,1.987,0,1,1-2.81,0A1.986,1.986,0,0,1,38.01,221.023Z" transform="translate(144.786 114.754) rotate(45)" fill="#4ecdc4"/>
    <path id="Path_2411" data-name="Path 2411" d="M46.78,212.253a1.987,1.987,0,1,1-2.81,0A1.986,1.986,0,0,1,46.78,212.253Z" transform="translate(148.019 114.753) rotate(45)" fill="#4ecdc4"/>
    <path id="Path_2412" data-name="Path 2412" d="M55.55,203.483a1.987,1.987,0,1,1-2.809,0A1.986,1.986,0,0,1,55.55,203.483Z" transform="translate(151.251 114.754) rotate(45)" fill="#4ecdc4"/>
    <path id="Path_2413" data-name="Path 2413" d="M64.321,194.713a1.987,1.987,0,1,1-2.81,0A1.987,1.987,0,0,1,64.321,194.713Z" transform="translate(154.484 114.754) rotate(45)" fill="#4ecdc4"/>
    <circle id="Ellipse_854" data-name="Ellipse 854" cx="1.987" cy="1.987" r="1.987" transform="translate(75.932 295.108) rotate(45)" fill="#4ecdc4"/>
    <circle id="Ellipse_855" data-name="Ellipse 855" cx="1.987" cy="1.987" r="1.987" transform="translate(91.567 295.108) rotate(45)" fill="#4ecdc4"/>
    <circle id="Ellipse_857" data-name="Ellipse 857" cx="1.987" cy="1.987" r="1.987" transform="translate(-2.246 314.286) rotate(45)" fill="#4ecdc4"/>
    <path id="Path_2418" data-name="Path 2418" d="M48.767,231.78a1.987,1.987,0,1,1-2.81,0A1.988,1.988,0,0,1,48.767,231.78Z" transform="translate(144.786 118.719) rotate(45)" fill="#4ecdc4"/>
    <path id="Path_2419" data-name="Path 2419" d="M57.537,223.01a1.987,1.987,0,1,1-2.81,0A1.984,1.984,0,0,1,57.537,223.01Z" transform="translate(148.019 118.719) rotate(45)" fill="#4ecdc4"/>
    <circle id="Ellipse_858" data-name="Ellipse 858" cx="1.987" cy="1.987" r="1.987" transform="translate(44.661 314.286) rotate(45)" fill="#4ecdc4"/>
    <circle id="Ellipse_859" data-name="Ellipse 859" cx="1.987" cy="1.987" r="1.987" transform="translate(60.296 314.286) rotate(45)" fill="#4ecdc4"/>
    <path id="Path_2420" data-name="Path 2420" d="M83.848,196.7a1.987,1.987,0,1,1-2.81,0A1.988,1.988,0,0,1,83.848,196.7Z" transform="translate(157.717 118.719) rotate(45)" fill="#4ecdc4"/>
    <path id="Path_2421" data-name="Path 2421" d="M92.618,187.929a1.987,1.987,0,1,1-2.81,0A1.988,1.988,0,0,1,92.618,187.929Z" transform="translate(160.95 118.719) rotate(45)" fill="#4ecdc4"/>
    <path id="Path_2387" data-name="Path 2387" d="M-36.124,252.13a1.986,1.986,0,0,1,0,2.81,1.986,1.986,0,0,1-2.81,0,1.988,1.988,0,0,1,0-2.81A1.988,1.988,0,0,1-36.124,252.13Z" transform="translate(125.389 106.823) rotate(45)" fill="#4ecdc4"/>
    <path id="Path_2388" data-name="Path 2388" d="M-27.354,243.36a1.986,1.986,0,0,1,0,2.81,1.988,1.988,0,0,1-2.81,0,1.988,1.988,0,0,1,0-2.81A1.988,1.988,0,0,1-27.354,243.36Z" transform="translate(128.622 106.824) rotate(45)" fill="#4ecdc4"/>
    <circle id="Ellipse_847" data-name="Ellipse 847" cx="1.987" cy="1.987" r="1.987" transform="translate(-49.153 256.754) rotate(45)" fill="#4ecdc4"/>
    <path id="Path_2389" data-name="Path 2389" d="M-9.814,225.82a1.986,1.986,0,0,1,0,2.81,1.988,1.988,0,0,1-2.81,0,1.988,1.988,0,0,1,0-2.81A1.986,1.986,0,0,1-9.814,225.82Z" transform="translate(135.088 106.823) rotate(45)" fill="#4ecdc4"/>
    <path id="Path_2390" data-name="Path 2390" d="M-1.044,217.05a1.986,1.986,0,0,1,0,2.81,1.987,1.987,0,0,1-2.809,0,1.986,1.986,0,0,1,0-2.81A1.984,1.984,0,0,1-1.044,217.05Z" transform="translate(138.32 106.823) rotate(45)" fill="#4ecdc4"/>
    <path id="Path_2394" data-name="Path 2394" d="M-25.367,262.887a1.988,1.988,0,0,1,0,2.81,1.988,1.988,0,0,1-2.81,0,1.986,1.986,0,0,1,0-2.81A1.986,1.986,0,0,1-25.367,262.887Z" transform="translate(125.389 110.788) rotate(45)" fill="#4ecdc4"/>
    <path id="Path_2395" data-name="Path 2395" d="M-16.6,254.117a1.988,1.988,0,0,1,0,2.81,1.988,1.988,0,0,1-2.81,0,1.988,1.988,0,0,1,0-2.81A1.986,1.986,0,0,1-16.6,254.117Z" transform="translate(128.622 110.789) rotate(45)" fill="#4ecdc4"/>
    <path id="Path_2396" data-name="Path 2396" d="M-7.827,245.347a1.988,1.988,0,0,1,0,2.81,1.988,1.988,0,0,1-2.81,0,1.988,1.988,0,0,1,0-2.81A1.986,1.986,0,0,1-7.827,245.347Z" transform="translate(131.855 110.789) rotate(45)" fill="#4ecdc4"/>
    <path id="Path_2397" data-name="Path 2397" d="M.943,236.577a1.986,1.986,0,0,1,0,2.81,1.988,1.988,0,0,1-2.81,0,1.988,1.988,0,0,1,0-2.81A1.986,1.986,0,0,1,.943,236.577Z" transform="translate(135.088 110.789) rotate(45)" fill="#4ecdc4"/>
    <path id="Path_2398" data-name="Path 2398" d="M9.713,227.807a1.987,1.987,0,1,1-2.81,0A1.984,1.984,0,0,1,9.713,227.807Z" transform="translate(138.32 110.789) rotate(45)" fill="#4ecdc4"/>
    <path id="Path_2404" data-name="Path 2404" d="M-14.611,273.644a1.986,1.986,0,0,1,0,2.81,1.987,1.987,0,0,1-2.809,0,1.986,1.986,0,0,1,0-2.81A1.984,1.984,0,0,1-14.611,273.644Z" transform="translate(125.389 114.754) rotate(45)" fill="#4ecdc4"/>
    <path id="Path_2405" data-name="Path 2405" d="M-5.84,264.874a1.988,1.988,0,0,1,0,2.81,1.988,1.988,0,0,1-2.81,0,1.986,1.986,0,0,1,0-2.81A1.986,1.986,0,0,1-5.84,264.874Z" transform="translate(128.622 114.754) rotate(45)" fill="#4ecdc4"/>
    <path id="Path_2406" data-name="Path 2406" d="M2.93,256.1a1.987,1.987,0,1,1-2.81,0A1.987,1.987,0,0,1,2.93,256.1Z" transform="translate(131.855 114.754) rotate(45)" fill="#4ecdc4"/>
    <path id="Path_2407" data-name="Path 2407" d="M11.7,247.333a1.987,1.987,0,1,1-2.81,0A1.988,1.988,0,0,1,11.7,247.333Z" transform="translate(135.087 114.753) rotate(45)" fill="#4ecdc4"/>
    <path id="Path_2408" data-name="Path 2408" d="M20.47,238.563a1.987,1.987,0,1,1-2.81,0A1.986,1.986,0,0,1,20.47,238.563Z" transform="translate(138.32 114.754) rotate(45)" fill="#4ecdc4"/>
    <path id="Path_2414" data-name="Path 2414" d="M-3.854,284.4a1.984,1.984,0,0,1,0,2.809,1.986,1.986,0,0,1-2.81,0,1.987,1.987,0,0,1,0-2.809A1.986,1.986,0,0,1-3.854,284.4Z" transform="translate(125.389 118.719) rotate(45)" fill="#4ecdc4"/>
    <path id="Path_2415" data-name="Path 2415" d="M4.916,275.63a1.987,1.987,0,1,1-2.81,0A1.986,1.986,0,0,1,4.916,275.63Z" transform="translate(128.622 118.719) rotate(45)" fill="#4ecdc4"/>
    <circle id="Ellipse_856" data-name="Ellipse 856" cx="1.987" cy="1.987" r="1.987" transform="translate(-49.153 314.286) rotate(45)" fill="#4ecdc4"/>
    <path id="Path_2416" data-name="Path 2416" d="M22.457,258.09a1.987,1.987,0,1,1-2.81,0A1.988,1.988,0,0,1,22.457,258.09Z" transform="translate(135.087 118.719) rotate(45)" fill="#4ecdc4"/>
    <path id="Path_2417" data-name="Path 2417" d="M31.227,249.32a1.987,1.987,0,1,1-2.81,0A1.988,1.988,0,0,1,31.227,249.32Z" transform="translate(138.32 118.719) rotate(45)" fill="#4ecdc4"/>
  </g>
</svg>
