<svg xmlns="http://www.w3.org/2000/svg" width="395.831" height="178.066" viewBox="0 0 395.831 178.066">
  <g id="Layer_2" data-name="Layer 2" transform="translate(0.05 -0.063)">
    <g id="Layer_1" data-name="Layer 1" transform="translate(-0.05 0.063)">
      <text id="OMART" transform="translate(118.831 136.389)" fill="#592d83" font-size="75" font-family="Poppins-Bold, Poppins" font-weight="700"><tspan x="0" y="0">OMART</tspan></text>
      <path id="Path_2262" data-name="Path 2262" d="M105.679,138.073l.275-25.765c.051-4.915-5.459-5.327-9.189-5.327h-16.1c-7.56,0-15.263-.031-22.442-2.452C41.858,98.993,31.957,81.552,34.358,64.646c.422-2.2,3.282-15.92,16.642-24.136,13.188-8.14,26.518-4.671,28.71-4.07a32.989,32.989,0,0,1,25.826,29.733,5.027,5.027,0,0,0,5.011,4.579h25.439a5.022,5.022,0,0,0,5-5.6c-1.262-10.613-6.182-32.618-25.856-48.889C88.264-5.953,45.17-5.673,20.2,19.283-11.574,51.046-5.357,111.657,34.623,133.829l1.16.626c19.954,10.5,43.007,8.349,64.778,8.649a5.032,5.032,0,0,0,5.118-5.032Z" transform="translate(0.05 -0.063)" fill="#f3736d"/>
      <circle id="Ellipse_807" data-name="Ellipse 807" cx="14.098" cy="14.098" r="14.098" transform="translate(78.8 149.87)" fill="#f3736d"/>
      <circle id="Ellipse_808" data-name="Ellipse 808" cx="14.098" cy="14.098" r="14.098" transform="translate(38.454 149.87)" fill="#592d83"/>
    </g>
  </g>
</svg>
